<svg width="176" height="73" viewBox="0 0 176 73" fill="none" xmlns="http://www.w3.org/2000/svg">
<g clip-path="url(#clip0)">
<path fill-rule="evenodd" clip-rule="evenodd" d="M7.92874 16.0492C10.3041 15.6893 12.4996 17.3448 12.8595 19.7202C13.2194 22.0956 11.5638 24.2911 9.18842 24.651C6.81302 25.0109 4.61757 23.3553 4.25766 20.9799C3.89775 18.6045 5.55334 16.4091 7.92874 16.0492ZM0.0108704 32.2451C-0.133093 29.2579 1.16258 26.4866 3.32204 24.6511C4.76167 26.4146 7.10108 27.4224 9.51248 27.0624C11.6719 26.7385 13.4715 25.4429 14.4432 23.6433C22.9731 28.3581 18.9061 39.5873 17.8984 36.816C16.2068 32.1372 7.31703 32.929 6.66919 38.1836C6.30827 41.09 8.48391 44.0666 10.8307 47.2773C12.9304 50.1499 15.1671 53.21 15.8469 56.575C27.436 51.3203 32.1148 38.2916 21.3175 38.9754C17.4665 39.2274 20.8496 35.4843 23.6569 35.7363C24.3767 38.1836 26.8241 39.7672 29.4155 39.4073C29.9913 39.3354 30.5672 39.1554 31.0351 38.8675C31.4669 39.5873 31.7549 40.4151 31.8988 41.3149C32.0068 42.0347 32.0068 42.7905 31.8628 43.4743C31.431 49.1249 22.1453 59.5263 16.0628 58.6625C11.9239 58.5905 -0.277057 39.9472 0.0108704 32.2451ZM31.719 33.7929C31.4671 32.1013 29.8835 30.9136 28.1919 31.1656C26.4643 31.4175 25.3126 33.0011 25.5646 34.6927C25.8165 36.3842 27.4001 37.5719 29.0917 37.32C30.7833 37.0681 31.971 35.4845 31.719 33.7929ZM170.138 46.0217C171.07 45.9329 171.826 45.5776 172.492 44.9114C173.247 44.1565 173.602 43.2682 173.602 42.2468V41.8471V40.0262H168.583C167.917 40.1151 167.34 40.3815 166.851 40.87C166.274 41.4474 165.963 42.158 165.963 43.0018C165.963 43.8456 166.274 44.5562 166.851 45.1335C167.384 45.6664 168.006 45.9329 168.717 46.0217H170.138ZM114.402 33.7199C113.47 33.8087 112.67 34.164 112.004 34.8746C111.294 35.6296 110.894 36.4734 110.894 37.4948V39.7598H115.513C116.356 39.7598 117.067 39.4489 117.644 38.8716C118.222 38.2942 118.532 37.5837 118.532 36.7398C118.532 35.896 118.222 35.1855 117.644 34.6081C117.111 34.0752 116.49 33.8087 115.779 33.7199H114.402ZM170.937 31.6326C172.181 31.7214 173.291 32.1211 174.224 32.9205C175.201 33.7199 175.778 34.7414 175.956 35.9849C176 36.1181 176 36.2513 176 36.3846V47.0876C176 47.8426 175.556 48.2867 174.801 48.2867C174.09 48.2867 173.646 47.887 173.602 47.2208C172.492 48.109 171.248 48.5531 169.783 48.5531H168.983C167.473 48.5531 166.185 48.0202 165.164 46.9543C164.098 45.8885 163.565 44.6006 163.565 43.135C163.565 41.6694 164.098 40.3815 165.164 39.3157C166.23 38.2498 167.473 37.7169 169.028 37.7169H173.646V37.2728V36.8731C173.646 36.0737 173.38 35.4075 172.758 34.919C172.136 34.3861 171.426 34.164 170.626 34.164C170.538 34.164 170.449 34.164 170.36 34.1196H166.452C165.697 34.1196 165.253 33.6755 165.253 32.9205C165.253 32.1655 165.697 31.7214 166.452 31.7214H170.671C170.76 31.5882 170.848 31.5882 170.937 31.6326ZM160.723 26.2145C161.7 26.2145 162.233 26.7474 162.233 27.7244C162.233 28.7015 161.7 29.2344 160.723 29.2344C159.746 29.2344 159.213 28.7015 159.213 27.7244C159.213 26.7474 159.746 26.2145 160.723 26.2145ZM159.835 33.9864H157.614C156.859 33.9864 156.415 33.5423 156.415 32.7873C156.415 32.0323 156.859 31.5438 157.614 31.5438H161.034C161.789 31.5438 162.233 31.9879 162.233 32.7429V46.9543C162.233 47.7093 161.789 48.1534 161.034 48.1534C160.279 48.1534 159.835 47.7093 159.835 46.9543V33.9864ZM152.729 28.6127H150.508C149.753 28.6127 149.309 28.1686 149.309 27.4136C149.309 26.6586 149.753 26.2145 150.508 26.2145H153.928C154.683 26.2145 155.127 26.6586 155.127 27.4136V46.9987C155.127 47.7537 154.683 48.1978 153.928 48.1978C153.173 48.1978 152.729 47.7537 152.729 46.9987V28.6127ZM145.534 33.9864H143.314C142.559 33.9864 142.115 33.5423 142.115 32.7873C142.115 32.0323 142.559 31.5438 143.314 31.5438H146.733C147.488 31.5438 147.932 31.9879 147.932 32.7429V46.9543C147.932 47.7093 147.488 48.1534 146.733 48.1534C145.978 48.1534 145.534 47.7093 145.534 46.9543V33.9864ZM123.995 32.2988C124.883 31.6326 125.949 31.3217 127.104 31.3217C128.036 31.3217 128.925 31.5438 129.724 32.0323C130.346 32.3876 130.879 32.8317 131.323 33.3646C131.767 32.8317 132.3 32.3876 132.922 32.0323C133.721 31.5438 134.654 31.3217 135.586 31.3217C137.052 31.3217 138.34 31.8547 139.406 32.9205C140.471 33.9864 141.004 35.2299 141.004 36.7398V36.8287V46.9987C141.004 47.7537 140.56 48.1978 139.805 48.1978C139.05 48.1978 138.606 47.7537 138.606 46.9987V36.6954V36.651V36.6066C138.562 35.8072 138.295 35.0966 137.674 34.5193C137.096 33.942 136.386 33.6755 135.586 33.6755C134.742 33.6755 134.032 33.9864 133.455 34.5637C132.877 35.1411 132.566 35.8516 132.566 36.6954V36.7398V36.7843C132.566 36.8731 132.566 36.9619 132.522 37.0951V46.9543C132.522 47.7093 132.078 48.1534 131.323 48.1534C130.568 48.1534 130.124 47.7093 130.124 46.9543V36.6954V36.651V36.6066C130.079 35.8072 129.768 35.0966 129.191 34.5193C128.614 33.942 127.903 33.6755 127.104 33.6755C126.26 33.6755 125.549 33.9864 124.972 34.5637C124.395 35.1411 124.084 35.8516 124.084 36.651V46.9543C124.084 47.7093 123.64 48.1534 122.885 48.1534C122.13 48.1534 121.686 47.7093 121.686 46.9543V32.7429C121.686 31.9879 122.13 31.5438 122.885 31.5438C123.462 31.5882 123.862 31.8102 123.995 32.2988ZM113.603 48.1534C112.226 48.0646 111.027 47.5317 110.05 46.5102C109.073 45.4888 108.54 44.2453 108.54 42.8241V42.7797V37.3172V37.1395C108.629 35.5408 109.295 34.164 110.45 33.0537C111.604 31.9435 113.026 31.3217 114.669 31.3217H115.735C117.156 31.3661 118.399 31.8991 119.421 32.9205C120.487 33.9864 121.019 35.2743 121.019 36.7398C121.019 38.2498 120.487 39.4933 119.421 40.5592C118.444 41.5362 117.289 42.0691 115.957 42.1136H110.938V42.7353C110.938 43.5791 111.249 44.2453 111.826 44.867C112.404 45.4444 113.114 45.7552 113.958 45.7552C114.047 45.7552 114.136 45.7552 114.225 45.7997H118.133C118.888 45.7997 119.332 46.2438 119.332 46.9987C119.332 47.7537 118.888 48.1978 118.133 48.1978H113.914C113.825 48.1978 113.692 48.1978 113.603 48.1534ZM145.001 26.2145H147.622L145.534 29.1012H144.246L145.001 26.2145ZM48.4522 38.7827L44.4996 38.3386L44.322 38.383C43.8334 38.2942 43.4337 38.1166 43.1229 37.7613C42.812 37.406 42.6343 37.0063 42.6343 36.5178C42.6788 35.5408 43.034 34.7858 43.7002 34.2084C44.3664 33.6311 45.2102 33.3202 46.1428 33.2758H46.1872H46.2316H50.7615C51.3389 33.2758 51.6053 33.0093 51.6053 32.432C51.6053 31.8547 51.3389 31.5882 50.7615 31.5882H46.276H46.1428H46.0984H46.054C44.6328 31.6326 43.4337 32.0767 42.4123 33.0093C41.3908 33.942 40.9023 35.0966 40.8579 36.5178V36.5622V36.6066C40.8579 37.5392 41.2132 38.3386 41.8794 39.0048C42.5455 39.671 43.3449 40.0262 44.2775 40.0707L48.2301 40.5148C49.0739 40.6036 49.7845 40.9589 50.4062 41.5362C51.028 42.1136 51.3833 42.8241 51.5165 43.6679C51.4277 44.6006 51.0724 45.3111 50.3618 45.8441C49.6513 46.377 48.8519 46.6435 47.9192 46.6435H47.8748H47.8304H41.7905C41.2132 46.6435 40.9467 46.9099 40.9467 47.4873C40.9467 48.0202 41.2132 48.3311 41.7905 48.3311H47.8748H47.9192H47.9636H48.0081H48.0525C49.4292 48.2867 50.6283 47.8426 51.6497 46.9987C52.6268 46.1105 53.2041 45.0003 53.2929 43.6235C53.1597 42.3356 52.6268 41.2697 51.7386 40.3371C50.8059 39.4045 49.7401 38.916 48.4522 38.7827ZM64.218 45.5776C63.3742 46.4214 62.3083 46.8655 61.0648 46.8655L60.2654 46.9099C59.244 46.9099 58.4002 46.5546 57.6896 45.8441C56.979 45.1335 56.6238 44.2897 56.6238 43.2682C56.6238 42.2468 56.979 41.403 57.6896 40.6924C58.4002 39.9818 59.244 39.6265 60.2654 39.6265V39.671H65.5503V42.4244C65.5503 43.6679 65.1062 44.7338 64.218 45.5776ZM60.976 48.5531H61.0648C62.8413 48.5531 64.3512 47.9314 65.5947 46.6435V47.4429C65.5947 48.0202 65.8612 48.2867 66.4386 48.2867C67.0159 48.2867 67.2824 48.0202 67.2824 47.4429V39.6265V37.8945V36.1181C67.2824 36.0293 67.2824 35.896 67.2379 35.8072C67.0603 34.5637 66.483 33.5423 65.5503 32.7873C64.6177 32.0323 63.5074 31.6326 62.2639 31.5438C62.1751 31.4994 62.0863 31.4994 61.9975 31.4994H57.512C56.9346 31.4994 56.6682 31.7658 56.6682 32.3432C56.6682 32.9205 56.9346 33.187 57.512 33.187H61.731C61.8642 33.2314 61.9531 33.2314 61.9975 33.2314C62.9745 33.2314 63.8183 33.5423 64.5289 34.164C65.2395 34.7858 65.5947 35.5852 65.5947 36.5622V37.8945H61.0648H60.2654H60.221C58.7555 37.9389 57.512 38.4719 56.4905 39.4933C55.4691 40.5148 54.9361 41.7583 54.9361 43.2238C54.9361 44.6894 55.4691 45.9773 56.4905 46.9987C57.5564 48.0202 58.7999 48.5531 60.2654 48.5531H60.976ZM81.2274 36.5622V36.2069C81.2274 36.1625 81.2274 36.1181 81.4494 35.8072V35.674V35.6296V35.5852V35.5407V35.4963C81.405 35.4519 81.405 35.4075 81.405 35.3631C81.2718 34.7414 81.0497 34.1196 80.6944 33.5423L80.65 33.4979C80.6056 33.4979 80.6056 33.4979 80.6056 33.4534L80.5612 33.409C80.5168 33.409 80.5168 33.3646 80.5168 33.3646L80.4724 33.3202C80.4502 33.3202 80.4391 33.3202 80.4335 33.3147C80.428 33.3091 80.428 33.298 80.428 33.2758C80.428 33.2314 80.428 33.2314 80.3836 33.187C80.3836 33.1426 80.3391 33.0982 80.3391 33.0982C80.3614 33.0982 80.3613 33.0982 80.3502 33.087C80.3391 33.0759 80.3169 33.0537 80.2947 33.0093L80.2503 32.9649C80.2059 32.9649 80.2059 32.9205 80.2059 32.9205C80.2059 32.8761 80.1615 32.8761 80.1615 32.8761C80.1171 32.8761 80.1171 32.8317 80.1171 32.8317C80.1171 32.7873 80.0727 32.7873 80.0727 32.7873C80.0283 32.7873 80.0283 32.7429 80.0283 32.7429L79.9839 32.6985L79.9394 32.654C79.895 32.654 79.895 32.6096 79.895 32.6096C79.895 32.5652 79.8506 32.5652 79.8506 32.5652C79.8062 32.5652 79.8062 32.5208 79.8062 32.5208C79.8062 32.4764 79.7618 32.4764 79.7618 32.4764C79.7174 32.4764 79.7174 32.432 79.7174 32.432H79.673C79.6286 32.432 79.5842 32.3876 79.5842 32.3876L79.5397 32.3432C79.5397 32.2988 79.4953 32.2988 79.4953 32.2988C79.4509 32.2988 79.4509 32.2543 79.4509 32.2543C79.4321 32.2543 79.4212 32.2543 79.4116 32.2509C79.3985 32.2463 79.3876 32.2355 79.3621 32.2099C79.3177 32.2099 79.2733 32.1655 79.2733 32.1655C79.0956 32.0323 78.9624 31.9435 78.8736 31.8991C78.8514 31.8991 78.8403 31.888 78.8292 31.8769C78.8181 31.8658 78.807 31.8546 78.7848 31.8546H78.7403H78.6959L78.6515 31.8102H78.6071L78.5627 31.7658H78.5183H78.4739L78.4295 31.7214H78.3851H78.3407L78.2962 31.677L78.2518 31.6326H78.2074H78.163C78.163 31.5882 78.1186 31.5882 78.1186 31.5882H78.0742L78.0298 31.5438C78.0298 31.5438 78.0298 31.4994 77.9854 31.4994H77.941H77.8965H77.8521C77.8521 31.455 77.8077 31.455 77.8077 31.455C77.8077 31.4105 77.7633 31.4105 77.7633 31.4105H77.7189H77.6745L77.6301 31.3661H77.5857H77.5413C77.5413 31.3217 77.4968 31.3217 77.4968 31.3217H77.4524H77.408H77.3636H77.3192H77.2748L77.2304 31.2773H77.186H77.1416H77.0972H77.0527H77.0083H76.9639H76.9195H76.8307H76.7863H76.6975H76.653H76.6086H76.5642H76.5198H76.4754H76.3866H76.3422H76.2978H76.2089H76.1645H76.1201H76.0757H76.0313H75.9869H75.9425H75.8981H75.0543H74.8322C73.1446 31.3661 71.7234 31.9879 70.5688 33.187V32.3876C70.5688 31.8102 70.3023 31.5438 69.725 31.5438C69.1476 31.5438 68.8811 31.8102 68.8811 32.3876V37.5392V47.4429C68.8811 47.9758 69.1476 48.2867 69.725 48.2867C70.3023 48.2867 70.5688 48.0202 70.5688 47.4429V37.3616C70.6132 36.1625 71.0129 35.1855 71.8567 34.2972C72.7005 33.409 73.6775 32.9649 74.8766 32.9205H75.8981C76.9195 32.9205 77.7633 33.2758 78.4739 33.9864C79.1845 34.6969 79.5397 35.5852 79.5397 36.5622V37.8945V39.138V41.0477V42.3356V47.4429C79.5397 48.0202 79.8062 48.2867 80.3836 48.2867C80.9609 48.2867 81.2274 48.0202 81.2274 47.4429V42.3356V41.0477V39.138V37.8945V36.5622ZM86.5122 43.2682C86.5122 43.2682 86.5567 43.3571 86.5567 43.4459C86.6011 44.867 87.134 46.0217 88.1554 46.8655C89.1769 47.7537 90.376 48.1978 91.7527 48.2422H91.7971H91.8415H91.886H94.4174C94.9947 48.2422 95.2612 47.9758 95.2612 47.3984C95.2612 46.8211 94.9947 46.5546 94.4174 46.5546H91.7971H91.7527H91.7083C90.7757 46.5102 89.9319 46.1994 89.2657 45.5776C88.5996 45.0003 88.2443 44.2009 88.2443 43.2238H88.1999V37.4504V33.2758H92.6409C93.2183 33.2758 93.4847 33.0093 93.4847 32.432C93.4847 31.8547 93.2183 31.5882 92.6409 31.5882H88.1999V28.4794C88.1999 27.9021 87.9334 27.6356 87.3561 27.6356C86.7787 27.6356 86.5122 27.9021 86.5122 28.4794V31.5882H83.7144C83.137 31.5882 82.8706 31.8547 82.8706 32.432C82.8706 33.0093 83.137 33.2758 83.7144 33.2758H86.5122V37.4504V43.2682ZM105.431 45.5776C104.587 46.4214 103.522 46.8655 102.278 46.8655L101.479 46.9099C100.457 46.9099 99.6134 46.5546 98.9029 45.8441C98.1923 45.1335 97.837 44.2897 97.837 43.2682C97.837 42.2468 98.1923 41.403 98.9029 40.6924C99.6134 39.9818 100.457 39.6265 101.479 39.6265V39.671H106.764V42.4244C106.764 43.6679 106.319 44.7338 105.431 45.5776ZM102.189 48.5531H102.278C104.055 48.5531 105.52 47.9314 106.764 46.6435V47.4429C106.764 48.0202 107.03 48.2867 107.607 48.2867C108.185 48.2867 108.451 48.0202 108.451 47.4429V39.6265V37.8945V36.1181C108.451 36.0293 108.451 35.896 108.407 35.8072C108.229 34.5637 107.652 33.5423 106.719 32.7873C105.787 32.0323 104.676 31.6326 103.433 31.5438C103.344 31.4994 103.255 31.4994 103.166 31.4994H98.6808C98.1035 31.4994 97.837 31.7658 97.837 32.3432C97.837 32.9205 98.1035 33.187 98.6808 33.187H102.944C103.077 33.2314 103.166 33.2314 103.211 33.2314C104.188 33.2314 105.032 33.5423 105.742 34.164C106.453 34.7858 106.808 35.5852 106.808 36.5622V37.8945H102.278H101.479H101.434C99.9687 37.9389 98.7252 38.4719 97.7038 39.4933C96.6823 40.5148 96.1494 41.7583 96.1494 43.2238C96.1494 44.6894 96.6823 45.9773 97.7038 46.9987C98.7696 48.0202 100.013 48.5531 101.479 48.5531H102.189ZM17.0706 38.3636C18.0784 38.2196 18.9782 38.9035 19.1221 39.9112C19.2661 40.919 18.5823 41.8187 17.5745 41.9627C16.5668 42.1067 15.667 41.4228 15.523 40.4151C15.3791 39.4073 16.0629 38.5076 17.0706 38.3636ZM17.2505 42.8625C13.6154 40.4152 9.33253 40.8111 10.4842 44.3022C11.144 45.8064 12.0263 46.9479 12.9023 48.0812C14.4157 50.0391 15.9104 51.9728 16.2068 55.7113C26.1043 51.2484 26.0323 39.5514 17.2505 42.8625Z" fill="white"/>
</g>
<defs>
<clipPath id="clip0">
<rect width="176" height="73" fill="white"/>
</clipPath>
</defs>
</svg>
