<svg width="72" height="97" viewBox="0 0 72 97" fill="none" xmlns="http://www.w3.org/2000/svg">
<path fill-rule="evenodd" clip-rule="evenodd" d="M17.8535 0.110708C23.2022 -0.6997 28.1457 3.02818 28.9561 8.37688C29.7665 13.7256 26.0386 18.6691 20.6899 19.4795C15.3412 20.2899 10.3978 16.562 9.58735 11.2133C8.77694 5.86461 12.5048 0.921117 17.8535 0.110708ZM0.0244769 36.5791C-0.299687 29.8527 2.61778 23.6126 7.48024 19.4795C10.7219 23.4505 15.9895 25.7196 21.4193 24.9092C26.2817 24.1799 30.3338 21.2624 32.5219 17.2103C51.7286 27.8267 42.5709 53.1114 40.3018 46.8713C36.4929 36.336 16.4758 38.1189 15.017 49.9509C14.2044 56.4951 19.1032 63.1974 24.3876 70.4271C29.1154 76.8953 34.1518 83.7857 35.6825 91.3627C61.7776 79.5308 72.3129 50.194 48.0007 51.7338C39.3293 52.301 46.9471 43.8728 53.2683 44.4401C54.8892 49.9509 60.3999 53.5167 66.2349 52.7062C67.5315 52.5442 68.8282 52.139 69.8817 51.4906C70.8542 53.1114 71.5025 54.9754 71.8267 57.0014C72.0698 58.6222 72.0698 60.3241 71.7457 61.8639C70.7732 74.5873 49.8646 98.0081 36.1687 96.0631C26.849 95.901 -0.62385 53.9219 0.0244769 36.5791ZM71.4215 40.064C70.8542 36.2551 67.2884 33.5807 63.4795 34.148C59.5895 34.7153 56.9962 38.2811 57.5635 42.09C58.1308 45.8989 61.6966 48.5733 65.5055 48.006C69.3144 47.4387 71.9888 43.8729 71.4215 40.064Z" fill="#2E3192"/>
<path fill-rule="evenodd" clip-rule="evenodd" d="M43.0572 53.8407C42.733 51.5715 40.707 50.0318 38.4378 50.3559C36.1687 50.6801 34.6289 52.7061 34.9531 54.9753C35.2773 57.2444 37.3033 58.7842 39.5724 58.46C41.8416 58.1359 43.3813 56.1098 43.0572 53.8407ZM23.6074 63.7278C21.0141 55.8668 30.658 54.9754 38.8431 60.4862C58.6171 53.0304 58.7792 79.3687 36.4929 89.4178C35.8256 80.9998 32.46 76.6456 29.0522 72.237C27.0797 69.6851 25.093 67.1149 23.6074 63.7278Z" fill="#00AEEF"/>
</svg>
